<svg width="18" height="17" viewBox="0 0 18 17" fill="none" xmlns="http://www.w3.org/2000/svg">
<path d="M2.01991 11.3837C1.33997 10.4176 1 9.93448 1 8.5C1 7.06552 1.33997 6.58246 2.01991 5.61629C3.37757 3.68712 5.65449 1.5 9 1.5C12.3455 1.5 14.6224 3.68712 15.9801 5.61629C16.66 6.58246 17 7.06552 17 8.5C17 9.93448 16.66 10.4176 15.9801 11.3837C14.6224 13.3129 12.3455 15.5 9 15.5C5.65449 15.5 3.37757 13.3129 2.01991 11.3837Z" stroke="#333333" stroke-opacity="0.3" stroke-width="1.25"/>
<path d="M11.4073 8.49986C11.4073 9.96143 10.3294 11.1462 8.99956 11.1462C7.66975 11.1462 6.5918 9.96143 6.5918 8.49986C6.5918 7.03828 7.66975 5.85352 8.99956 5.85352C10.3294 5.85352 11.4073 7.03828 11.4073 8.49986Z" stroke="#333333" stroke-opacity="0.3" stroke-width="1.25"/>
</svg>
