<svg width="10" height="10" viewBox="0 0 10 10" fill="none" xmlns="http://www.w3.org/2000/svg">
<path d="M6.06336 5L9.7851 1.27825C9.92377 1.13676 10.001 0.946257 9.99999 0.748147C9.99899 0.550037 9.91985 0.360326 9.77976 0.22024C9.63967 0.0801529 9.44996 0.00101018 9.25185 9.60352e-06C9.05374 -0.000990977 8.86324 0.0762314 8.72175 0.214896L5 3.93664L1.27825 0.214896C1.13676 0.0762314 0.946257 -0.000990977 0.748147 9.60352e-06C0.550037 0.00101018 0.360326 0.0801529 0.22024 0.22024C0.0801529 0.360326 0.00101018 0.550037 9.60352e-06 0.748147C-0.000990977 0.946257 0.0762314 1.13676 0.214896 1.27825L3.93664 5L0.214896 8.72175C0.0762314 8.86324 -0.000990977 9.05374 9.60352e-06 9.25185C0.00101018 9.44996 0.0801529 9.63967 0.22024 9.77976C0.360326 9.91985 0.550037 9.99899 0.748147 9.99999C0.946257 10.001 1.13676 9.92377 1.27825 9.7851L5 6.06336L8.72175 9.7851C8.86324 9.92377 9.05374 10.001 9.25185 9.99999C9.44996 9.99899 9.63967 9.91985 9.77976 9.77976C9.91985 9.63967 9.99899 9.44996 9.99999 9.25185C10.001 9.05374 9.92377 8.86324 9.7851 8.72175L6.06336 5Z" fill="#A90101"/>
</svg>
